# xmcd CD database file
#
# Track frame offsets:
#	150
#	25911
#	50002
#	75735
#	111663
#	141827
#	168883
#	195164
#	219681
#	249069
#	276968
#	312991
#
# Disc length: 4548 seconds
#
# Revision: 0
# Processed by: cddbd v1.5.1PL0 Copyright (c) Steve Scherf et al.
# Submitted via: CDex 1.51
#
DISCID=a711c20c
DTITLE=Various Artist - All Time Classics
DYEAR=1998
DGENRE=Mix
TTITLE0=Dr. Dre - Turn off the light
TTITLE1=LL Cool J - I Need Love
TTITLE2=Rico Sparx - Ay, Ay, Ay
TTITLE3=Misty D - Out on a Limb
TTITLE4=Bombats Broz - Commin´from the Heart 
TTITLE5=Nu Shooz - Should I say yes ?
TTITLE6=Audio Deluxe - 60 Seconds 
TTITLE7=Freestyle - Dont´ stop the Rock
TTITLE8=Bomb the Bass - Don´t make me wait 
TTITLE9=Jetz Orkhesta - The Case
TTITLE10=Run DMC - It´s like that 
TTITLE11=Down Low - Jonny B
EXTD=YEAR: 1998
EXTT0=
EXTT1=
EXTT2=
EXTT3=
EXTT4=
EXTT5=
EXTT6=
EXTT7=
EXTT8=
EXTT9=
EXTT10=
EXTT11=
PLAYORDER=
